# xmcd
#
# Track frame offsets: 
#        150
#        19603
#        33362
#        49224
#        67564
#        82041
#        95306
#        101504
#        116910
#        133186
#        146997
#        164912
#        179453
#
# Disc length: 2588 seconds
#
# Revision: 1
# Processed by: cddbd v1.5.2PL0 Copyright (c) Steve Scherf et al.
# Submitted via: ExactAudioCopy v0.99pb5
#
DISCID=b70a1a0d
DTITLE=Susan Wong - A NIGHT AT THE MOVIES
DYEAR=2006
DGENRE=Jazz
TTITLE0=01 - SOMETIMES WHEN WE TOUCH
TTITLE1=02 - FIRST OF MAY
TTITLE2=03 - SMILE
TTITLE3=04 - YOU DON'T KNOW ME
TTITLE4=05 - WHEN I FALL IN LOVE
TTITLE5=06 - A THOUSAND DREAMS OF YOU
TTITLE6=07 - GUITAR INTERLUDE
TTITLE7=08 - AS TIME GOES BY
TTITLE8=09 - MORE
TTITLE9=10 - SWAY
TTITLE10=11 - MEMORY
TTITLE11=12 - IN THE WEE SMALL HOURS OF THE MORNING
TTITLE12=13 - FALLEN
EXTD=YEAR: 2006
EXTT0=
EXTT1=
EXTT2=
EXTT3=
EXTT4=
EXTT5=
EXTT6=
EXTT7=
EXTT8=
EXTT9=
EXTT10=
EXTT11=
EXTT12=
PLAYORDER=
